<svg xmlns="http://www.w3.org/2000/svg" width="217.4" height="222.92" viewBox="0 0 217.4 222.92">
  <path id="Icon_awesome-arrow-down" data-name="Icon awesome-arrow-down" d="M198.571,94.9l10.8,10.8a11.625,11.625,0,0,1,0,16.488l-94.5,94.551a11.625,11.625,0,0,1-16.488,0L3.826,122.19a11.625,11.625,0,0,1,0-16.488l10.8-10.8a11.686,11.686,0,0,1,16.683.195l55.836,58.608V13.923A11.645,11.645,0,0,1,98.815,2.25h15.564a11.645,11.645,0,0,1,11.673,11.673V153.707L181.888,95.1A11.6,11.6,0,0,1,198.571,94.9Z" transform="translate(2.103 0.25)" fill="#fff" stroke="#000" stroke-width="5"/>
</svg>
